<?xml version="1.0" encoding="UTF-8"?>
<svg id="_圖層_1" data-name="圖層_1" xmlns="http://www.w3.org/2000/svg" version="1.1" viewBox="0 0 1814 552">
  <!-- Generator: Adobe Illustrator 30.3.0, SVG Export Plug-In . SVG Version: 2.1.3 Build 182)  -->
  <defs>
    <style>
      .st0 {
        fill: #ffffff;
      }
    </style>
  </defs>
  <g>
    <path class="st0" d="M277.35,425.67c-17.48,0-26.78-.7-27.88-2.08,1.39-13.04,2.08-29,2.08-47.86v-48.28l-10.4,12.49c-4.99-16.92-10.68-32.32-17.06-46.2v52.02h-69.92v19.14c0,6.39.27,12.63.83,18.73-.28,1.39-9.16,2.08-26.64,2.08s-26.64-.7-28.3-2.08c2.22-21.64,3.33-49.25,3.33-82.82v-166.06c0-33.57-1.11-61.18-3.33-82.82,0-1.67,1.11-2.5,3.33-2.5,14.98,1.66,35.1,2.5,60.35,2.5h60.35v225.57c20.25-29.13,35.79-59.24,46.61-90.31l11.65,4.58c-1.39-7.76-4.31-16.65-8.74-26.64l-19.56,12.07-21.23-35.79c17.75-7.21,32.6-13.59,44.53-19.14-8.05-4.99-22.2-12.21-42.45-21.64l15.81-22.47h-8.32c-1.11,0-2.64.14-4.58.42h-3.75c-.83-.27-1.25-7.35-1.25-21.23s.42-21.36,1.25-22.47c14.15,1.67,33.29,2.5,57.43,2.5h57.85v120.69c0,9.99-1.11,17.48-3.33,22.47-2.22,5.55-6.24,9.85-12.07,12.9-7.22,3.61-17.06,5.83-29.55,6.66l19.14,7.49-4.58,9.16h27.47c4.99-11.93,8.18-21.92,9.57-29.97l45.78,7.49c-1.11-4.16-3.19-10.4-6.24-18.73-.83-3.05-1.53-5.27-2.08-6.66l-19.98,12.07-20.81-35.79c10.54-4.16,25.66-10.82,45.36-19.98-8.6-5.55-23.03-12.9-43.28-22.06l17.48-24.97h-8.32c-1.11,0-2.5.14-4.16.42h-3.75c-.83-.27-1.25-7.35-1.25-21.23s.42-21.36,1.25-22.47c13.87,1.67,32.46,2.5,55.77,2.5h56.19v126.1c0,9.72-1.11,17.06-3.33,22.06-2.22,5.27-6.24,9.44-12.07,12.49-8.6,4.16-23.45,6.24-44.53,6.24l-7.08,12.49h35.79c8.32,0,20.25-.55,35.79-1.67.83.83,1.25,8.67,1.25,23.51s-.42,22.68-1.25,23.51c-10.55-1.11-21.23-1.67-32.05-1.67h-32.46v11.24h25.8c8.6,0,17.06-.42,25.39-1.25.83.56,1.25,7.22,1.25,19.98s-.42,19.42-1.25,19.98c-6.11-.83-14.57-1.25-25.39-1.25h-25.8v10.4h25.8c8.6,0,17.06-.42,25.39-1.25.83.56,1.25,7.22,1.25,19.98s-.42,19.42-1.25,19.98c-6.11-.83-14.57-1.25-25.39-1.25h-25.8v11.24h33.29c7.49,0,18.45-.55,32.88-1.67.83.83,1.25,8.67,1.25,23.51s-.42,22.82-1.25,23.93c-11.65-1.39-25.8-2.08-42.45-2.08h-128.19v5.83c0,1.11.14,2.35.42,3.75v2.08c-.28,1.38-9.16,2.08-26.64,2.08ZM154.16,170.13h17.9v-65.76h-17.9v65.76ZM154.16,293.32h17.9v-71.58h-17.9v71.58ZM282.76,119.77l21.23-11.24v-30.38h-35.38c3.05.83,5.96,2.08,8.74,3.75,3.05,1.11,5.96,2.36,8.74,3.75,3.88,1.94,8.46,4.3,13.73,7.08l-17.06,27.05ZM276.93,163.06h21.64c.83-.27,1.67-.42,2.5-.42l.83-.42.83-.42c.83-.83,1.25-2.22,1.25-4.16v-11.24l-27.05,16.65ZM303.57,271.68h50.77v-11.24h-50.77v11.24ZM303.57,319.54h50.77v-10.4h-50.77v10.4ZM303.57,368.24h50.77v-11.24h-50.77v11.24ZM398.87,124.77l24.56-12.07v-34.54h-40.37c4.44,1.66,7.63,3.06,9.57,4.16,4.44,1.66,7.63,3.06,9.57,4.16.83.28,1.94.83,3.33,1.66,6.38,2.78,10.54,4.86,12.49,6.24l-19.15,30.38ZM418.02,168.47c.83-.27,1.66-.42,2.5-.42l.83-.42.83-.42c.83-.83,1.25-2.22,1.25-4.16v-12.07l-28.72,17.06,23.31.42Z"/>
    <path class="st0" d="M710.6,426.5c-4.16-8.32-12.77-19.29-25.8-32.88-55.5,5.55-113.35,10.96-173.55,16.23l-6.24-49.94,79.91-4.99v-17.9h-34.54c-7.77,0-19.14.56-34.13,1.66-.83-.83-1.25-8.39-1.25-22.68s.42-21.85,1.25-22.68c11.09,1.11,22.47,1.67,34.13,1.67h34.54v-10.82h-67.01v-132.35h67.01v-10.4h-38.71c-8.88,0-21.64.56-38.29,1.66-.83-.83-1.25-8.53-1.25-23.1s.42-22.27,1.25-23.1c12.76,1.11,25.52,1.67,38.29,1.67h38.71v-9.99c-21.92,1.11-43.56,1.94-64.93,2.5-1.94-13.87-6.24-28.02-12.9-42.45,71.58-3.33,130.54-9.99,176.88-19.98l24.97,44.53c-17.76,3.89-41.35,7.49-70.75,10.82v14.57h37.04c8.32,0,20.53-.55,36.62-1.67.83.83,1.25,8.53,1.25,23.1s-.42,22.27-1.25,23.1c-12.21-1.11-24.42-1.66-36.62-1.66h-37.04v10.4h68.67v132.35h-68.67v10.82h35.79c8.04,0,19.83-.55,35.38-1.67.83.83,1.25,8.4,1.25,22.68s-.42,21.85-1.25,22.68c-11.65-1.11-23.45-1.66-35.38-1.66h-35.79v14.15l64.93-5,6.24-9.16c11.93-19.7,20.81-43.56,26.64-71.58,4.99-23.86,8.32-53.96,9.99-90.31h-16.23c-3.61,0-9.02.28-16.23.83-.83-.55-1.25-10.12-1.25-28.72s.42-28.02,1.25-28.3c5.55.56,11.09.83,16.65.83h17.06V35.29h56.6l-.42,84.49h80.74c0,8.6-.14,17.21-.42,25.8-1.66,89.06-3.61,149.41-5.83,181.04-2.78,36.9-7.22,60.07-13.32,69.5-4.99,7.49-10.27,13.04-15.81,16.65-4.72,3.05-10.96,5.55-18.73,7.49-9.99,2.22-27.2,3.05-51.61,2.5-.56-8.6-2.36-18.18-5.41-28.72-3.33-11.37-7.22-20.95-11.65-28.72,10.82,1.11,23.58,1.66,38.29,1.66,5.83,0,10.4-2.5,13.73-7.49,3.88-5.27,6.8-21.78,8.74-49.53,1.94-26.91,3.47-71.86,4.58-134.84h-24.97c-3.33,61.6-10.82,110.57-22.47,146.91-14.43,43.56-37.32,78.38-68.67,104.46ZM564.51,200.93h20.39v-12.49h-20.39v12.49ZM564.51,247.54h20.39v-12.49h-20.39v12.49ZM638.18,200.93h19.98v-12.49h-19.98v12.49ZM638.18,247.54h19.98v-12.49h-19.98v12.49Z"/>
    <path class="st0" d="M1009,424.84c-19.42,0-29.55-.7-30.38-2.08,1.11-10.55,1.66-21.23,1.66-32.05v-96.55c-12.76,29.13-24.83,51.05-36.21,65.76-4.44-15.26-13.32-34.68-26.64-58.27,20.25-24.14,38.56-57.85,54.94-101.13h-25.39c-8.32,0-16.65.42-24.97,1.25-.83-.55-1.25-10.33-1.25-29.34s.42-28.78,1.25-29.34c7.21.83,16.92,1.25,29.13,1.25h29.13v-38.71l-39.95,5.41c-2.22-13.59-7.49-29.13-15.81-46.61,51.33-7.76,95.58-19.28,132.76-34.54l32.05,49.53c-15.81,5.55-33.02,10.55-51.61,14.98v49.94h24.97c8.32,0,16.65-.42,24.97-1.25.83.56,1.25,10.34,1.25,29.34s-.42,28.79-1.25,29.34c-6.11-.83-14.43-1.25-24.97-1.25h-24.97v1.25c4.99,4.44,13.87,13.46,26.64,27.05,12.21,13.32,20.25,22.34,24.14,27.05l-33.71,47.45c-3.89-9.16-9.57-20.67-17.06-34.54v115.7c0,12.76.55,25.52,1.66,38.29-.83,1.38-10.96,2.08-30.38,2.08ZM1236.24,424.42c-19.71,0-30.11-.7-31.21-2.08,1.38-12.49,2.08-27.88,2.08-46.2v-46.2l-118.2,22.06-9.16-57.85,127.35-23.31V87.73c0-24.97-.83-45.78-2.5-62.43,14.15-.55,28.99-.42,44.53.42,18.59,1.11,27.88,2.91,27.88,5.41-3.89,7.22-6.52,13.04-7.91,17.48-2.5,7.49-3.75,16.09-3.75,25.8v186.04l36.62-6.66,8.74,57.02-45.36,8.32v51.61c0,19.98.69,37.18,2.08,51.61-1.11,1.39-11.52,2.08-31.21,2.08ZM1149.25,260.03c-4.72-8.6-13.6-19.56-26.63-32.88-12.49-12.76-24-23.72-34.54-32.88l37.87-34.54c10.82,8.6,22.61,18.73,35.38,30.38,13.59,12.49,23.16,22.89,28.72,31.21l-40.79,38.71ZM1160.91,149.32c-5.27-8.88-13.6-19.7-24.97-32.46-9.72-10.82-20.81-21.78-33.29-32.88l38.71-33.71c11.65,9.44,22.89,19.56,33.71,30.38,11.93,11.65,21.08,22.06,27.47,31.21l-41.62,37.46Z"/>
    <path class="st0" d="M1357.76,419.84c-1.94-17.21-7.35-35.52-16.23-54.94,9.71.28,21.91.42,36.62.42,4.99,0,7.49-2.63,7.49-7.91v-74.08l-34.54,8.32-14.57-57.85,49.11-9.99v-64.09h-22.06c-7.49,0-14.85.42-22.06,1.25-.83-.55-1.25-10.26-1.25-29.13s.42-28.57,1.25-29.13c5.55.83,12.9,1.25,22.06,1.25h22.06v-38.29c0-11.65-.56-24.97-1.66-39.95,13.59-.55,27.32-.42,41.2.42,16.92,1.11,25.39,2.91,25.39,5.41-4.44,5.55-6.66,11.24-6.66,17.06v55.35h18.73c4.16,0,10.41-.27,18.73-.83.83.28,1.25,9.78,1.25,28.51s-.42,28.37-1.25,28.93c-6.11-.55-12.35-.83-18.73-.83h-18.73v50.77l33.71-7.91,7.07,55.35-40.79,10.82v89.06c0,14.15-1.39,24.97-4.16,32.46-2.78,8.04-8.05,14.29-15.82,18.73-12.21,7.21-34.27,10.82-66.17,10.82ZM1695.29,423.17c-37.74-11.1-70.48-27.33-98.22-48.69-28.3,19.14-62.57,34.82-102.8,47.03-3.33-8.6-7.91-18.04-13.73-28.3-6.38-11.37-12.35-20.11-17.9-26.22,33.57-7.49,63.81-19.14,90.73-34.96-21.09-25.52-38.71-55.63-52.86-90.31l18.73-5.41h-13.32c-3.05,0-7.35.28-12.9.83-.83-.55-1.25-9.99-1.25-28.3s.42-27.88,1.25-28.72c12.76,1.11,25.52,1.66,38.29,1.66h38.29v-42.87h-41.62c-9.44,0-23.31.56-41.62,1.67-.83-.83-1.25-10.61-1.25-29.34s.42-28.51,1.25-29.34c13.87,1.11,27.74,1.66,41.62,1.66h41.62v-28.3c0-11.37-.42-21.23-1.25-29.55,13.59-.55,27.6-.42,42.03.42,17.48,1.11,26.22,2.91,26.22,5.41-5.55,8.32-8.32,16.93-8.32,25.8v26.22h66.17c7.76,0,15.12-.42,22.06-1.25.83.56,1.25,10.2,1.25,28.92s-.42,28.37-1.25,28.92c-5.28-.83-12.63-1.25-22.06-1.25h-66.17v42.87h40.37l9.99-2.08,38.29,15.4c-14.15,56.6-38.43,103.21-72.83,139.84,26.36,16.37,55.91,28.44,88.65,36.21-13.04,12.49-25.53,29.82-37.46,52.02ZM1598.74,297.49c7.76-7.49,15.95-16.92,24.55-28.3,8.04-11.93,14.42-22.89,19.14-32.88h-84.07c9.71,21.92,23.16,42.31,40.37,61.18Z"/>
  </g>
  <g>
    <path class="st0" d="M100.31,525.62c-3.7,0-5.63-.14-5.8-.41.22-2.1.33-4.19.33-6.29v-6.29h-6.71c-1.55,0-3.76.11-6.63.33-.17-.17-.25-2.01-.25-5.54s.08-5.38.25-5.54c2.21.22,4.42.33,6.63.33h6.71v-3.39h-11.19v-31.11h11.19v-3.56h-6.21c-2.1,0-4.14.08-6.13.25-.17-.11-.25-1.9-.25-5.38s.08-5.27.25-5.38c1.49.17,3.53.25,6.13.25h6.21v-3.64c0-.99-.06-2.32-.17-3.97,2.49-.11,5.06-.08,7.71.08,3.2.22,4.81.58,4.81,1.08-.88.99-1.33,2.07-1.33,3.23v3.23h6.3c2.1,0,4.17-.08,6.21-.25.17.11.25,1.9.25,5.38s-.08,5.27-.25,5.38c-1.49-.17-3.56-.25-6.21-.25h-6.3v3.56h11.68v6.37c3.37-6.67,5.72-15.83,7.04-27.47,3.04.44,5.85,1.08,8.45,1.9,2.76.88,4.09,1.63,3.98,2.23-.06.5-.3.94-.75,1.32-.77.66-1.24,1.63-1.41,2.9-.06.22-.11.53-.17.91-.5,2.54-.88,4.41-1.16,5.63h14.83l1.74-.33,7.96,1.82c-1.38,8.27-3.07,16.49-5.05,24.66l-9.53-2.23c.55-2.59,1.3-7,2.24-13.24h-2.98v11.17c0,5.35,1.19,10.62,3.56,15.8,3.04,6.62,7.54,11.83,13.51,15.64-2.65,3.42-5,6.95-7.04,10.59-4.09-2.54-7.68-6.48-10.77-11.83-2.49-4.3-4.14-8.47-4.97-12.49-.83,3.97-2.65,8.14-5.47,12.49-3.31,5.18-7.21,9.13-11.68,11.83-.61-1.32-1.6-3.05-2.98-5.17-1.38-2.12-2.57-3.79-3.56-5.01.17-.11.44-.3.83-.58,1.33-.83,2.29-1.49,2.9-1.99h-11.27v6.29c0,2.1.11,4.19.33,6.29-.17.28-2.1.41-5.8.41ZM92.52,479.45h3.65v-3.56h-3.65v3.56ZM92.52,490.62h3.65v-3.64h-3.65v3.64ZM104.54,479.45h3.73v-3.56h-3.73v3.56ZM104.54,490.62h3.73v-3.64h-3.73v3.64ZM119.2,510.73c4.09-3.75,7.24-8.44,9.45-14.06,1.71-4.58,2.57-9.02,2.57-13.32v-11.17h-.75c-1.82,5.63-4.14,10.48-6.96,14.56-1.05-.94-3.04-2.51-5.97-4.72v16.79h-11.77v3.39h13.42v8.52Z"/>
    <path class="st0" d="M174.47,521.73c-3.31,0-5.11-.14-5.39-.41.33-2.81.5-6.62.5-11.42v-11.42l-2.24,2.9c-.22-1.76-.75-4.22-1.57-7.36-.83-3.36-1.6-5.9-2.32-7.61,4.42-6.01,7.68-14.56,9.78-25.65h-4.39c-1.49,0-2.96.08-4.39.25-.17-.11-.25-2-.25-5.67s.08-5.58.25-5.75c2.43.22,4.94.33,7.54.33h15.08c1.66,0,4.14-.11,7.46-.33.17.17.25,2.08.25,5.75s-.08,5.56-.25,5.67c-1.22-.17-2.9-.25-5.05-.25h-5.05c-1.11,5.29-2.43,10.34-3.98,15.14h14.34l-.08,19.77v19.69h-15.25v2.98c0,.99.05,1.99.17,2.98-.06.28-1.77.41-5.14.41ZM179.45,504.94h5.63v-18.62h-5.63v18.62ZM235.3,525.45c-9.83-1.16-17.68-3.42-23.53-6.78-3.31,2.7-7.49,4.91-12.51,6.62-.72-1.32-1.8-2.92-3.23-4.8-1.44-1.93-2.71-3.45-3.81-4.55l2.49-.58c3.26-.88,6.1-2.04,8.53-3.47-2.76-3.03-5.22-6.76-7.37-11.17l10.03-2.15c1.21,2.21,2.57,4.08,4.06,5.63.88-1.99,1.52-4.27,1.91-6.87h-14.5v-32.6h14.92v-4.14h-7.95c-1.77,0-4.42.11-7.96.33-.17-.17-.25-2.07-.25-5.71s.08-5.57.25-5.79c2.76.33,6.43.5,11.02.5h22.12c3.76,0,7.46-.17,11.1-.5.17.22.25,2.15.25,5.79s-.08,5.57-.25,5.79c-2.32-.28-5.17-.41-8.54-.41h-8.62v4.14h15.41v32.6h-15.83c-.72,4.85-2.1,9.18-4.14,12.99,5.74,2.54,13.42,4.11,23.04,4.72-1.11,1.16-2.32,2.81-3.65,4.96-1.22,1.99-2.21,3.81-2.98,5.46ZM207.7,476.89h4.56v-3.31h-4.56v3.31ZM207.7,488.47h4.56v-3.39h-4.56v3.39ZM223.45,476.89h4.64v-3.31h-4.64v3.31ZM223.45,488.47h4.64v-3.39h-4.64v3.39Z"/>
    <path class="st0" d="M258.17,525.79c-3.31,0-5.08-.14-5.3-.41.28-2.65.41-5.87.41-9.68v-29.04h-2.57c-.55,0-1.38.06-2.49.17-.17-.11-.25-2.44-.25-6.99s.08-6.85.25-6.91c.77.11,1.55.17,2.32.17h2.4v-12c0-5.02-.17-9.02-.5-12,0-.38.17-.58.5-.58,3.98.39,8.51.58,13.59.58h13.59v23.99h5.05v9.02h19.14c5.69,0,12.04-.28,19.06-.83.17.39.25,1.94.25,4.67s-.08,4.21-.25,4.43c-2.65-.28-5.86-.41-9.61-.41h-28.84v-3.31h-5.22v28.96c0,2.21-.17,3.86-.5,4.96-.44,1.32-1.24,2.34-2.4,3.06-1.05.72-2.35,1.19-3.89,1.41-1.11.17-2.73.25-4.89.25-.39-3.2-1.24-6.21-2.57-9.02.94.06,2.13.08,3.56.08.55,0,.83-.3.83-.91v-4.05h-6.79v7.03c0,2.32.11,4.63.33,6.95-.17.28-1.91.41-5.22.41ZM256.51,483.18h19.97v-2.23h-19.97v2.23ZM261.23,473.08h1.99v-13.4h8.2v-2.23h-10.19v15.64ZM263.06,493.43h6.79v-2.4h-6.79v2.4ZM263.06,503.53h6.79v-2.48h-6.79v2.48ZM269.19,473.08h2.24v-6.95h-2.24v6.95ZM283.03,525.04c-.17-.22-.25-1.74-.25-4.55s.08-4.27.25-4.39c1.1.17,2.62.25,4.56.25h4.64c-.77-2.32-1.71-4.33-2.82-6.04l5.14-1.9h-7.46v-16.63h34.31v16.63h-6.55l4.39.99-4.23,6.95h4.64c1.6,0,3.15-.08,4.64-.25.17.11.25,1.57.25,4.39s-.08,4.33-.25,4.55c-2.87-.28-6.3-.41-10.28-.41h-20.72c-3.09,0-6.52.14-10.28.41ZM286.18,480.03v-26.81h8.7v-3.31c0-.94-.06-2.12-.17-3.56,1.88-.11,3.81-.08,5.8.08,2.49.22,3.73.58,3.73,1.08-.88.88-1.33,1.82-1.33,2.81v2.9h2.15v-3.31c0-.94-.06-2.12-.17-3.56,1.88-.11,3.84-.08,5.88.08,2.49.22,3.73.58,3.73,1.08-.88.88-1.33,1.82-1.33,2.81v2.9h9.12v26.81h-36.13ZM294.63,463.15h2.15v-2.56h-2.15v2.56ZM294.63,472.67h2.15v-2.65h-2.15v2.65ZM296.37,501.63h15.25v-3.06h-15.25v3.06ZM301.42,516.35h4.81c.55-1.21,1.1-2.54,1.66-3.97.11-.33.28-.83.5-1.49.44-1.1.75-1.93.91-2.48h-11.44c.83,1.21,1.55,2.54,2.15,3.97.72,1.49,1.19,2.81,1.41,3.97ZM302.91,463.15h2.15v-2.56h-2.15v2.56ZM302.91,472.67h2.15v-2.65h-2.15v2.65ZM311.2,463.15h2.24v-2.56h-2.24v2.56ZM311.2,472.67h2.24v-2.65h-2.24v2.65Z"/>
    <path class="st0" d="M347.33,525.7c-3.87,0-5.88-.14-6.05-.41.22-2.1.33-4.22.33-6.37v-19.2c-2.54,5.79-4.94,10.15-7.21,13.07-.88-3.03-2.65-6.89-5.3-11.58,4.03-4.8,7.68-11.5,10.94-20.1h-4.64c-1.6,0-3.15.08-4.64.25-.17-.11-.25-2.05-.25-5.83s.08-5.72.25-5.83c1.33.17,3.12.25,5.39.25h5.47v-7.78c-3.15.5-6.08.91-8.78,1.24-.5-2.59-1.57-5.65-3.23-9.18,10.66-1.76,19.2-4.05,25.6-6.87,1.93,2.32,3.62,4.69,5.05,7.12,1.44,2.43,1.93,3.72,1.49,3.89-.33.11-.72.08-1.16-.08-.72-.33-1.52-.33-2.4,0-1.11.33-2.82.83-5.14,1.49v10.18h3.89c.94,0,2.24-.05,3.89-.17.17.06.25,1.96.25,5.71s-.08,5.68-.25,5.79c-1.22-.11-2.51-.17-3.89-.17h-3.89v.99c1.05.88,2.8,2.62,5.26,5.21,2.46,2.59,4.05,4.36,4.76,5.29l-6.63,9.43c-.88-1.93-2.02-4.19-3.4-6.79v22.59c0,2.54.11,5.02.33,7.45-.17.28-2.18.41-6.05.41ZM360.26,524.21c-.17-.22-.25-2.11-.25-5.67s.08-5.45.25-5.67c2.37.28,5.27.41,8.7.41h8.78v-5.71h-6.88c-1.55,0-3.81.11-6.79.33-.17-.17-.25-1.94-.25-5.34s.08-5.17.25-5.34c2.21.22,4.47.33,6.79.33h6.88v-5.05c-5.03.39-9.48.61-13.34.66-.33-2.54-1.22-5.54-2.65-9.02,15.36-.77,27.51-2.23,36.46-4.39l6.79,8.94c-4.14.99-9.31,1.88-15.5,2.65v6.21h6.71c1.49,0,3.73-.11,6.71-.33.17.17.25,1.94.25,5.34s-.08,5.17-.25,5.34c-2.21-.22-4.45-.33-6.71-.33h-6.71v5.71h8.29c1.82,0,4.56-.11,8.2-.33.17.17.25,2.01.25,5.54s-.08,5.35-.25,5.46c-1.38-.17-3.29-.25-5.72-.25h-28.67c-3.81,0-7.6.17-11.35.5ZM364.48,479.78v-29.79h38.53v29.79h-38.53ZM375.34,469.77h16.16v-9.76h-16.16v9.76Z"/>
    <path class="st0" d="M476.43,525.29c-12.38,0-19.69-17.84-21.96-53.53h-29.83c-2.93,0-6.24.14-9.94.41-.17-.22-.25-2.32-.25-6.29s.08-6.07.25-6.29c2.65.28,5.91.41,9.78.41h29.42c-.11-5.74-.17-10.07-.17-12.99h12.76c-.17,3.86-.19,8.19-.08,12.99h10.36c-2.32-2.48-4.94-4.85-7.87-7.12l7.79-6.54c4.75,3.37,8.12,6.26,10.11,8.69l-5.63,4.96h3.56c.77,0,1.93-.05,3.48-.17.17.06.25,2.07.25,6.04s-.08,6.1-.25,6.37c-2.65-.33-6.19-.5-10.61-.5h-10.69c.83,11.53,2.18,21.13,4.06,28.79,2.04,8.05,4.23,12.08,6.55,12.08,1.44,0,2.35-4.85,2.73-14.56,1.33,1.43,2.95,2.81,4.89,4.14,1.93,1.32,3.73,2.29,5.39,2.9-.77,8-2.27,13.43-4.47,16.3-1.93,2.59-5.14,3.89-9.61,3.89ZM417.6,523.05l-3.15-12.16c3.15-.39,7.98-1.08,14.5-2.07v-17.62h-5.55c-1.88,0-3.73.08-5.55.25-.17-.11-.25-2.12-.25-6.04s.08-5.98.25-6.21c2.37.28,5.27.41,8.7.41h17.4c2.6,0,5.5-.14,8.7-.41.17.22.25,2.29.25,6.21s-.08,5.93-.25,6.04c-1.49-.17-3.48-.25-5.97-.25h-5.97v15.72l13.92-2.32.83,10.67c-7.9,1.71-19.47,4.08-34.72,7.12-1.44.33-2.49.55-3.15.66Z"/>
    <path class="st0" d="M495.66,470.1c-.17-.17-.25-1.83-.25-5.01s.08-4.84.25-5.01c2.65.22,5.36.33,8.12.33h16.24c1.88,0,4.58-.11,8.12-.33.17.17.25,1.83.25,5.01s-.08,4.84-.25,5.01c-2.65-.22-5.36-.33-8.12-.33h-16.24c-1.88,0-4.59.11-8.12.33ZM530.96,525.21c-1.49-3.75-3.45-7.12-5.88-10.09v5.96h-15.91v1.49c0,.17.03.47.08.91v.58c-.06.28-1.74.41-5.06.41s-5.05-.14-5.22-.41c.22-2.32.33-4.69.33-7.12v-21.59h25.77v19.2c5.63-1.43,10.55-3.45,14.75-6.04-3.15-3.47-5.88-7.53-8.2-12.16l10.11-3.31h-6.3c-2.04,0-4.12.08-6.21.25-.17-.11-.25-1.97-.25-5.58s.08-5.45.25-5.5h.66c.44.06.77.08.99.08h1.66c-2.21-2.43-4.64-4.5-7.29-6.21v5.13h-12.84c-3.59,0-7.84.19-12.76.58-.17-.28-.25-1.96-.25-5.05s.08-4.77.25-5.05c3.7.39,7.95.58,12.76.58h12.84v2.9c2.98-2.15,5-4.8,6.05-7.94.72-2.15,1.08-4.96,1.08-8.44v-9.85h28.42v17.62c0,1.21.04,1.97.12,2.27.08.3.29.46.62.46h.91c.44,0,.75-.47.91-1.41.22-1.05.36-3.2.41-6.45,1.93,1.71,5.08,3.12,9.45,4.22-.44,5.18-1.41,8.8-2.9,10.84-1.38,1.93-3.59,2.9-6.63,2.9h-4.31c-3.7,0-6.23-.91-7.58-2.73-1.35-1.82-2.03-5.13-2.03-9.93v-7.28h-6.21c-.11,10.43-3.04,18.04-8.78,22.84h25.02l1.99-.41,7.71,2.81c-2.32,9.65-6.24,17.65-11.77,23.99,4.81,2.76,10.03,4.83,15.66,6.21-1.22,1.16-2.6,2.81-4.14,4.96-1.44,1.93-2.6,3.72-3.48,5.38-6.35-1.93-12.04-4.74-17.07-8.44-5.08,3.53-10.99,6.34-17.73,8.44ZM499.63,492.94c-.17-.17-.25-1.76-.25-4.8s.08-4.63.25-4.8c2.1.22,4.23.33,6.38.33h12.84c1.49,0,3.62-.11,6.38-.33.17.17.25,1.77.25,4.8s-.08,4.63-.25,4.8c-2.1-.22-4.23-.33-6.38-.33h-12.84c-1.49,0-3.62.11-6.38.33ZM499.8,458.35c-.17-.17-.25-1.76-.25-4.8s.08-4.63.25-4.8c2.1.22,4.2.33,6.3.33h12.68c1.44,0,3.53-.11,6.3-.33.17.17.25,1.77.25,4.8s-.08,4.63-.25,4.8c-2.1-.22-4.2-.33-6.3-.33h-12.68c-1.44,0-3.54.11-6.3.33ZM509.16,511.72h5.88v-7.03h-5.88v7.03ZM548.44,501.46c1.27-1.32,2.32-2.65,3.15-3.97,1.1-1.54,1.99-3.03,2.65-4.47h-12.18c.72,1.27,1.66,2.73,2.82,4.38,1.1,1.38,2.29,2.73,3.56,4.05Z"/>
    <path class="st0" d="M578.52,470.19c-.17-.22-.25-1.92-.25-5.09s.08-4.87.25-5.09c2.32.28,5.14.41,8.45.41h17.07c2.49,0,5.3-.14,8.45-.41.17.22.25,1.92.25,5.09s-.08,4.87-.25,5.09c-2.32-.28-5.17-.41-8.53-.41h-16.99c-2.49,0-5.3.14-8.45.41ZM587.3,524.46c-3.43,0-5.22-.14-5.39-.41.22-2.32.33-4.69.33-7.12v-21.59h26.77v25.73h-16.66v1.49c0,.17.03.47.08.91v.58c-.06.28-1.77.41-5.14.41ZM582.58,481.52c-.17-.17-.25-1.76-.25-4.8s.08-4.63.25-4.8c2.21.22,4.42.33,6.63.33h13.42c1.55,0,3.76-.11,6.63-.33.17.17.25,1.77.25,4.8s-.08,4.63-.25,4.8c-2.21-.22-4.45-.33-6.71-.33h-13.34c-1.55,0-3.76.11-6.63.33ZM582.58,492.94c-.17-.17-.25-1.76-.25-4.8s.08-4.63.25-4.8c2.21.22,4.42.33,6.63.33h13.42c1.55,0,3.76-.11,6.63-.33.17.17.25,1.77.25,4.8s-.08,4.63-.25,4.8c-2.21-.22-4.45-.33-6.71-.33h-13.34c-1.55,0-3.76.11-6.63.33ZM583,458.35c-.17-.17-.25-1.76-.25-4.8s.08-4.63.25-4.8c2.1.22,4.28.33,6.55.33h13.26c1.55,0,3.76-.11,6.63-.33.17.17.25,1.77.25,4.8s-.08,4.63-.25,4.8c-2.21-.22-4.42-.33-6.63-.33h-13.26c-1.49,0-3.67.11-6.55.33ZM592.36,511.72h6.38v-7.03h-6.38v7.03ZM634.04,525.7c-4.09,0-6.24-.14-6.46-.41.28-2.65.41-5.9.41-9.76v-29.37h-8.04c-1.77,0-4.42.11-7.96.33-.17-.17-.25-2.26-.25-6.29s.08-6.12.25-6.29c2.65.22,5.3.33,7.96.33h8.04v-13.57c0-4.91-.19-9.54-.58-13.9,2.98-.11,6.05-.08,9.2.08,3.81.22,5.72.58,5.72,1.08-.77,1.43-1.3,2.59-1.57,3.47-.5,1.49-.75,3.2-.75,5.13v17.71h8.12c1.88,0,4.58-.11,8.12-.33.17.17.25,2.25.25,6.25s-.08,6.05-.25,6.16c-1.33-.11-2.68-.17-4.06-.17h-12.18v19.61c0,7.61.28,14.12.83,19.53-.39.28-2.65.41-6.79.41Z"/>
    <path class="st0" d="M659.73,532.57l9.11-41.2,9.2-41.2h9.53l-9.12,41.2-9.11,41.2h-9.61Z"/>
    <path class="st0" d="M731.57,484.5c-3.92,0-5.97-.11-6.13-.33.22-2.65.33-5.38.33-8.19v-8.19h-20.14v4.8c0,2.04.08,3.64.25,4.8-.11.22-1.93.33-5.47.33s-5.33-.11-5.55-.33c.28-2.37.41-5.27.41-8.69v-8.69h30.49v-1.99h-12.26c-4.03,0-8.09.17-12.18.5-.17-.28-.25-1.9-.25-4.88s.08-4.63.25-4.96c3.98.44,9.03.66,15.16.66h30.41c4.69,0,9.75-.22,15.16-.66.17.33.25,1.99.25,4.96s-.08,4.61-.25,4.88c-3.04-.33-7.15-.5-12.35-.5h-12.35v1.99h31.16v8.69c0,3.42.14,6.32.41,8.69-.22.22-2.15.33-5.8.33s-5.61-.11-5.72-.33c.17-1.16.25-2.76.25-4.8v-4.8h-20.3v8.19c0,2.81.11,5.54.33,8.19-.17.22-2.21.33-6.13.33ZM741.02,525.29c-6.02,0-10.14-.81-12.35-2.44-2.21-1.63-3.37-4.67-3.48-9.14h-10.94v1.66c0,.22.03.55.08.99v.66c-.06.22-1.96.33-5.72.33s-5.8-.11-5.97-.33c.22-2.54.33-5.1.33-7.69v-23.25h57.34v13.82c0,5.24.19,9.85.58,13.82,0,.33-.19.5-.58.5-2.87-.33-6.82-.5-11.85-.5h-11.93c.05,1.1.5,1.82,1.33,2.15.66.28,2.07.41,4.23.41h14c1.93,0,3.23-.46,3.89-1.37.66-.91,1.13-2.94,1.41-6.08,2.37,1.71,5.61,2.95,9.7,3.72-.61,4.96-1.89,8.33-3.85,10.09-1.96,1.76-5.35,2.65-10.15,2.65h-16.08ZM706.71,484.25c-.17-.11-.25-1.24-.25-3.39s.08-3.28.25-3.39c.99.17,2.4.25,4.23.25h8.45c1.44,0,2.84-.08,4.23-.25.17.11.25,1.24.25,3.39s-.08,3.28-.25,3.39c-.99-.17-2.4-.25-4.23-.25h-8.45c-1.38,0-2.79.08-4.23.25ZM708.2,475.98c-.17-.11-.25-1.21-.25-3.31s.08-3.17.25-3.23c1.21.11,2.49.17,3.81.17h7.79c.88,0,2.15-.05,3.81-.17.17.06.25,1.13.25,3.23s-.08,3.2-.25,3.31c-1.22-.11-2.49-.17-3.81-.17h-7.79c-.88,0-2.15.05-3.81.17ZM714.25,496.5h10.94v-2.56h-10.94v2.56ZM714.25,505.85h10.94v-2.48h-10.94v2.48ZM736.46,496.5h12.18v-2.56h-12.18v2.56ZM736.46,505.85h12.18v-2.48h-12.18v2.48ZM739.69,475.98c-.17-.11-.25-1.21-.25-3.31s.08-3.17.25-3.23c1.21.11,2.46.17,3.73.17h7.54c.83,0,2.07-.05,3.73-.17.17.06.25,1.13.25,3.23s-.08,3.2-.25,3.31c-1.22-.11-2.46-.17-3.73-.17h-7.54c-.83,0-2.07.05-3.73.17ZM739.69,484.25c-.17-.11-.25-1.24-.25-3.39s.08-3.28.25-3.39c.99.17,2.4.25,4.23.25h8.45c1.44,0,2.84-.08,4.23-.25.17.11.25,1.24.25,3.39s-.08,3.28-.25,3.39c-.99-.17-2.4-.25-4.23-.25h-8.45c-1.38,0-2.79.08-4.23.25Z"/>
    <path class="st0" d="M819.41,525.45c-3.7,0-5.69-.14-5.97-.41.39-3.86.58-8.3.58-13.32v-13.4l-.17.08c-.99-2.04-2.35-4.11-4.06-6.21v4.88h-8.2v8.85l8.95-1.99,1.16,10.59c-10,2.48-21.35,5.18-34.06,8.11l-1.91-11.5,3.23-.58v-13.82c0-5.02-.19-9.71-.58-14.06,2.43-.11,4.94-.08,7.54.08,3.2.22,4.81.58,4.81,1.08-.77,1.43-1.3,2.59-1.57,3.47-.5,1.49-.75,3.2-.75,5.13v16.3l2.82-.58v-29.95h-11.27v-28.63h29v19.69c2.82-2.81,5.34-6.21,7.58-10.18,2.24-3.97,3.99-8.14,5.26-12.49l11.19,2.81-1.66,4.8h8.95l1.99-.41,7.46,3.23c-2.27,8.55-5.86,16-10.77,22.34,4.92,3.53,10.16,6.07,15.74,7.61-2.27,2.26-4.31,4.99-6.13,8.19v14.81c0,6.01.22,10.95.66,14.81-.33.28-2.43.41-6.3.41s-5.75-.14-5.8-.41v-.41c.05-.28.08-.53.08-.75v-1.24h-12.35v1.32c0,.17.03.44.08.83v.5c-.06.28-1.91.41-5.55.41ZM790.07,468.04h8.12v-8.27h-8.12v8.27ZM809.79,488.39c2.38-.99,4.83-2.29,7.38-3.89,2.21-1.38,4.42-3.06,6.63-5.05-1.44-1.82-2.62-3.53-3.56-5.13-1.05,1.38-2.18,2.68-3.4,3.89-.77-.83-1.96-1.96-3.56-3.39-1.16-1.1-2.6-2.29-4.31-3.56v6.95h-7.37v8.44h8.2v1.74ZM822.56,493.93h17.9c-1.88-1.05-3.48-2.04-4.81-2.98-.99-.77-2.43-1.93-4.31-3.48-2.54,2.32-5.47,4.47-8.78,6.45ZM824.88,512.13h12.35v-8.19h-12.35v8.19ZM830.76,471.76c.94-1.27,1.71-2.48,2.32-3.64.66-.99,1.38-2.26,2.15-3.81h-8.53l-.58.99c.44.72,1.16,1.79,2.15,3.23.77,1.05,1.6,2.12,2.49,3.23Z"/>
    <path class="st0" d="M859.02,470.1c-.17-.17-.25-1.83-.25-5.01s.08-4.84.25-5.01c2.65.22,5.36.33,8.12.33h16.24c1.88,0,4.58-.11,8.12-.33.17.17.25,1.83.25,5.01s-.08,4.84-.25,5.01c-2.65-.22-5.36-.33-8.12-.33h-16.24c-1.88,0-4.59.11-8.12.33ZM894.32,525.21c-1.49-3.75-3.45-7.12-5.88-10.09v5.96h-15.91v1.49c0,.17.03.47.08.91v.58c-.06.28-1.74.41-5.06.41s-5.05-.14-5.22-.41c.22-2.32.33-4.69.33-7.12v-21.59h25.77v19.2c5.63-1.43,10.55-3.45,14.75-6.04-3.15-3.47-5.88-7.53-8.2-12.16l10.11-3.31h-6.3c-2.04,0-4.12.08-6.21.25-.17-.11-.25-1.97-.25-5.58s.08-5.45.25-5.5h.66c.44.06.77.08.99.08h1.66c-2.21-2.43-4.64-4.5-7.29-6.21v5.13h-12.84c-3.59,0-7.84.19-12.76.58-.17-.28-.25-1.96-.25-5.05s.08-4.77.25-5.05c3.7.39,7.95.58,12.76.58h12.84v2.9c2.98-2.15,5-4.8,6.05-7.94.72-2.15,1.08-4.96,1.08-8.44v-9.85h28.42v17.62c0,1.21.04,1.97.12,2.27.08.3.29.46.62.46h.91c.44,0,.75-.47.91-1.41.22-1.05.36-3.2.41-6.45,1.93,1.71,5.08,3.12,9.45,4.22-.44,5.18-1.41,8.8-2.9,10.84-1.38,1.93-3.59,2.9-6.63,2.9h-4.31c-3.7,0-6.23-.91-7.58-2.73-1.35-1.82-2.03-5.13-2.03-9.93v-7.28h-6.21c-.11,10.43-3.04,18.04-8.78,22.84h25.02l1.99-.41,7.71,2.81c-2.32,9.65-6.24,17.65-11.77,23.99,4.81,2.76,10.03,4.83,15.66,6.21-1.22,1.16-2.6,2.81-4.14,4.96-1.44,1.93-2.6,3.72-3.48,5.38-6.35-1.93-12.04-4.74-17.07-8.44-5.08,3.53-10.99,6.34-17.73,8.44ZM862.99,492.94c-.17-.17-.25-1.76-.25-4.8s.08-4.63.25-4.8c2.1.22,4.23.33,6.38.33h12.84c1.49,0,3.62-.11,6.38-.33.17.17.25,1.77.25,4.8s-.08,4.63-.25,4.8c-2.1-.22-4.23-.33-6.38-.33h-12.84c-1.49,0-3.62.11-6.38.33ZM863.16,458.35c-.17-.17-.25-1.76-.25-4.8s.08-4.63.25-4.8c2.1.22,4.2.33,6.3.33h12.68c1.44,0,3.53-.11,6.3-.33.17.17.25,1.77.25,4.8s-.08,4.63-.25,4.8c-2.1-.22-4.2-.33-6.3-.33h-12.68c-1.44,0-3.54.11-6.3.33ZM872.52,511.72h5.88v-7.03h-5.88v7.03ZM911.8,501.46c1.27-1.32,2.32-2.65,3.15-3.97,1.1-1.54,1.99-3.03,2.65-4.47h-12.18c.72,1.27,1.66,2.73,2.82,4.38,1.1,1.38,2.29,2.73,3.56,4.05Z"/>
    <path class="st0" d="M941.88,470.19c-.17-.22-.25-1.92-.25-5.09s.08-4.87.25-5.09c2.32.28,5.14.41,8.45.41h17.07c2.49,0,5.3-.14,8.45-.41.16.22.25,1.92.25,5.09s-.08,4.87-.25,5.09c-2.32-.28-5.17-.41-8.54-.41h-16.99c-2.49,0-5.3.14-8.45.41ZM950.66,524.46c-3.43,0-5.22-.14-5.39-.41.22-2.32.33-4.69.33-7.12v-21.59h26.77v25.73h-16.66v1.49c0,.17.03.47.08.91v.58c-.05.28-1.77.41-5.14.41ZM945.94,481.52c-.17-.17-.25-1.76-.25-4.8s.08-4.63.25-4.8c2.21.22,4.42.33,6.63.33h13.42c1.54,0,3.76-.11,6.63-.33.17.17.25,1.77.25,4.8s-.08,4.63-.25,4.8c-2.21-.22-4.45-.33-6.71-.33h-13.34c-1.55,0-3.76.11-6.63.33ZM945.94,492.94c-.17-.17-.25-1.76-.25-4.8s.08-4.63.25-4.8c2.21.22,4.42.33,6.63.33h13.42c1.54,0,3.76-.11,6.63-.33.17.17.25,1.77.25,4.8s-.08,4.63-.25,4.8c-2.21-.22-4.45-.33-6.71-.33h-13.34c-1.55,0-3.76.11-6.63.33ZM946.36,458.35c-.17-.17-.25-1.76-.25-4.8s.08-4.63.25-4.8c2.1.22,4.28.33,6.55.33h13.26c1.54,0,3.76-.11,6.63-.33.17.17.25,1.77.25,4.8s-.08,4.63-.25,4.8c-2.21-.22-4.42-.33-6.63-.33h-13.26c-1.49,0-3.67.11-6.55.33ZM955.72,511.72h6.38v-7.03h-6.38v7.03ZM997.4,525.7c-4.09,0-6.24-.14-6.46-.41.28-2.65.41-5.9.41-9.76v-29.37h-8.04c-1.77,0-4.42.11-7.96.33-.17-.17-.25-2.26-.25-6.29s.08-6.12.25-6.29c2.65.22,5.3.33,7.96.33h8.04v-13.57c0-4.91-.19-9.54-.58-13.9,2.98-.11,6.05-.08,9.2.08,3.81.22,5.72.58,5.72,1.08-.77,1.43-1.3,2.59-1.57,3.47-.5,1.49-.75,3.2-.75,5.13v17.71h8.12c1.88,0,4.58-.11,8.12-.33.17.17.25,2.25.25,6.25s-.08,6.05-.25,6.16c-1.33-.11-2.68-.17-4.06-.17h-12.18v19.61c0,7.61.28,14.12.83,19.53-.39.28-2.65.41-6.79.41Z"/>
    <path class="st0" d="M1045.54,483.01c-.17-.38-.25-2.4-.25-6.04s.08-5.57.25-5.79c2.32.28,5.16.41,8.54.41h8.54c-.61-2.59-1.52-5.21-2.73-7.86l1.24-.25h-5.55c-1.88,0-3.73.08-5.55.25-.17-.11-.25-1.97-.25-5.58s.08-5.56.25-5.83c3.7.39,7.98.58,12.84.58h12.93v-3.14c0-.83-.06-1.96-.17-3.39,2.82-.11,5.69-.08,8.62.08,3.59.22,5.39.58,5.39,1.08-.88.88-1.33,1.77-1.33,2.65v2.73h13.59c3.87,0,8.4-.19,13.59-.58.17.28.25,2.22.25,5.83s-.08,5.48-.25,5.58c-1.21-.17-2.96-.25-5.22-.25h-5.22l1.66.33-3.65,7.78h8.04c1.77,0,4.42-.11,7.96-.33.17.17.25,2.06.25,5.67s-.08,5.53-.25,5.75c-2.48-.28-5.55-.41-9.2-.41h-45.99c-6.13,0-12.24.25-18.31.74ZM1062.7,525.62c-3.98,0-6.08-.14-6.3-.41.28-2.65.41-5.9.41-9.76v-19.69c0-3.86-.14-7.12-.41-9.76,0-.38.14-.58.41-.58,3.76.39,8.12.58,13.09.58h26.35c4.97,0,9.34-.19,13.09-.58.28,0,.41.19.41.58-.28,2.65-.41,5.9-.41,9.76v9.85c0,7.67.28,14.2.83,19.61-.39.28-2.71.41-6.96.41s-6.41-.14-6.46-.41v-.5c.05-.33.08-.58.08-.75v-1.24h-28.17v1.24c0,.17.03.41.08.75v.5c-.06.28-2.07.41-6.05.41ZM1068.66,499.81h28.17v-3.97h-28.17v3.97ZM1068.66,512.88h28.17v-4.14h-28.17v4.14ZM1074.71,471.59h16.41l-.75-.17c1.05-2.65,1.88-5.29,2.49-7.94h-20.22c1.44,2.87,2.37,5.52,2.82,7.94l-.75.17Z"/>
    <path class="st0" d="M1127.91,503.78c-.17-.39-.25-1.86-.25-4.43s.08-3.96.25-4.18c2.76.28,6.1.41,10.03.41h10.11c-.28-.77-.78-1.79-1.49-3.06l1.99-.5h-11.77v-4.72c-1.38.61-2.93,1.21-4.64,1.82-1.55-2.81-3.26-5.16-5.14-7.03,5.03-1.54,9.17-3.69,12.43-6.45l-11.27,1.57-1.57-8.11,6.79-.5,2.57-3.06c-2.76-2.21-5.58-4.14-8.45-5.79l4.47-6.78,1.49.75c1.71-3.14,2.9-5.54,3.56-7.2l8.04,2.9-5.63,7.94,1.74,1.24c.83-1.16,1.91-2.84,3.23-5.05.22-.44.38-.74.5-.91,2.04.88,3.87,1.99,5.47,3.31,1.71,1.44,2.35,2.43,1.9,2.98-.33.39-.8.69-1.41.91-.99.28-1.93.99-2.82,2.15-2.21,2.65-3.87,4.61-4.97,5.87l2.32-.17c.39-.77.72-1.66.99-2.65l6.96,1.08v-15.89h6.38v-1.74c0-.22-.01-.54-.04-.95-.03-.41-.04-.76-.04-1.03,2.38-.11,4.81-.08,7.29.08,3.04.22,4.56.58,4.56,1.08-.66.33-.99.74-.99,1.24v1.32h6.38v20.68h-2.49c1.82,1.99,3.31,3.92,4.47,5.79v-28.05h16.32l1.24-.41,6.96,3.06c-.72,1.99-1.91,4.88-3.56,8.69-.72,1.65-1.24,2.9-1.57,3.72,3.43,3.09,5.14,6.23,5.14,9.43s-1.13,5.6-3.4,7.03c-1.05.72-2.49,1.24-4.31,1.57-1.82.22-3.65.25-5.47.08-.06-2.32-.78-4.74-2.15-7.28v4.55c0,1.93.08,3.45.25,4.55-.11.22-1.71.33-4.81.33s-4.67-.11-4.72-.33v-.58c.05-.44.08-.74.08-.91v-1.49l-5.14,2.81c-.28-.83-.8-1.85-1.57-3.06l-9.45,1.49h7.46v3.06h12.43c4.2,0,8.31-.17,12.35-.5.17.22.25,1.54.25,3.97s-.08,3.7-.25,3.81c-1.16-.17-2.73-.25-4.72-.25h-4.72l-3.15,3.56h10.11c3.04,0,6.41-.14,10.11-.41.17.22.25,1.6.25,4.14s-.08,3.92-.25,4.14c-2.6-.28-5.72-.41-9.36-.41h-46.65c-6.19,0-12.4.25-18.64.75ZM1144.57,525.79c-3.65,0-5.58-.14-5.8-.41.28-2.87.41-6.29.41-10.26v-10.34h53.86v10.34c0,3.97.14,7.39.41,10.26-.22.28-2.21.41-5.96.41s-5.75-.17-5.8-.5v-.17c.05-.28.08-.47.08-.58v-.83h-31.82v.83c0,.11.03.3.08.58v.25c-.06.28-1.88.41-5.47.41ZM1140.92,485h18.15v-2.48l-6.88,1.08-1.91-7.78c-1.27,1.77-2.73,3.53-4.39,5.29-1.38,1.32-3.04,2.62-4.97,3.89ZM1149.95,511.97h31.82v-1.65h-31.82v1.65ZM1149.95,518.17h31.82v-1.74h-31.82v1.74ZM1150.45,475.56l2.9-.25v-4.8c-.17.44-.39.88-.66,1.32-.17.33-.42.77-.75,1.32-.66,1.1-1.16,1.9-1.49,2.4ZM1156.91,495.59h15.74l-.83-.25,1.91-3.31h-16.32c.55,1.21.96,2.26,1.24,3.14l-1.74.41ZM1162.22,457.78h5.8v-1.9h-5.8v1.9ZM1162.22,465.22h5.8v-1.9h-5.8v1.9ZM1162.22,474.41l2.57-.25,2.57-.25-1.74-1.99,1.82-.99h-5.22v3.47ZM1191.55,474.16c.88-.11,1.49-.25,1.82-.41.66-.44.99-1.1.99-1.99,0-1.6-1.69-3.78-5.05-6.54.05-.22.17-.52.33-.91.5-1.54.86-2.7,1.08-3.47.44-1.54.83-2.95,1.16-4.22h-3.81v17.29l3.48.25Z"/>
    <path class="st0" d="M1210.69,520.74c-.17-.39-.25-2.68-.25-6.87s.08-6.45.25-6.78c3.98.44,9,.66,15.08.66h15.08v-40.29h-12.76c-3.59,0-7.85.19-12.76.58-.17-.28-.25-2.57-.25-6.87s.08-6.62.25-6.95c4.31.44,9.75.66,16.32.66h32.81c5.14,0,10.58-.22,16.32-.66.17.33.25,2.65.25,6.95s-.08,6.59-.25,6.87c-3.76-.39-8.15-.58-13.18-.58h-13.26v40.29h15.66c4.86,0,10.08-.22,15.66-.66.17.33.25,2.59.25,6.78s-.08,6.48-.25,6.87c-5.14-.55-11.38-.83-18.73-.83h-37.54c-5.58,0-11.82.28-18.73.83Z"/>
    <path class="st0" d="M1309.72,525.7c-3.87,0-5.88-.14-6.05-.41.22-2.1.33-4.22.33-6.37v-19.2c-2.54,5.79-4.94,10.15-7.21,13.07-.88-3.03-2.65-6.89-5.3-11.58,4.03-4.8,7.68-11.5,10.94-20.1h-4.64c-1.6,0-3.15.08-4.64.25-.16-.11-.25-2.05-.25-5.83s.08-5.72.25-5.83c1.33.17,3.12.25,5.39.25h5.47v-7.78c-3.15.5-6.08.91-8.78,1.24-.5-2.59-1.57-5.65-3.23-9.18,10.66-1.76,19.2-4.05,25.61-6.87,1.93,2.32,3.62,4.69,5.05,7.12,1.44,2.43,1.93,3.72,1.49,3.89-.33.11-.72.08-1.16-.08-.72-.33-1.52-.33-2.4,0-1.11.33-2.82.83-5.14,1.49v10.18h3.89c.94,0,2.24-.05,3.89-.17.17.06.25,1.96.25,5.71s-.08,5.68-.25,5.79c-1.21-.11-2.51-.17-3.89-.17h-3.89v.99c1.05.88,2.8,2.62,5.26,5.21,2.46,2.59,4.05,4.36,4.77,5.29l-6.63,9.43c-.88-1.93-2.02-4.19-3.4-6.79v22.59c0,2.54.11,5.02.33,7.45-.17.28-2.18.41-6.05.41ZM1322.64,524.21c-.17-.22-.25-2.11-.25-5.67s.08-5.45.25-5.67c2.38.28,5.28.41,8.7.41h8.78v-5.71h-6.88c-1.55,0-3.81.11-6.79.33-.17-.17-.25-1.94-.25-5.34s.08-5.17.25-5.34c2.21.22,4.47.33,6.79.33h6.88v-5.05c-5.03.39-9.47.61-13.34.66-.33-2.54-1.22-5.54-2.65-9.02,15.36-.77,27.51-2.23,36.46-4.39l6.79,8.94c-4.14.99-9.31,1.88-15.5,2.65v6.21h6.71c1.49,0,3.73-.11,6.71-.33.17.17.25,1.94.25,5.34s-.08,5.17-.25,5.34c-2.21-.22-4.45-.33-6.71-.33h-6.71v5.71h8.29c1.82,0,4.56-.11,8.2-.33.17.17.25,2.01.25,5.54s-.08,5.35-.25,5.46c-1.38-.17-3.29-.25-5.72-.25h-28.67c-3.81,0-7.6.17-11.35.5ZM1326.87,479.78v-29.79h38.53v29.79h-38.53ZM1337.72,469.77h16.16v-9.76h-16.16v9.76Z"/>
    <path class="st0" d="M1373.52,532.57l9.12-41.2,9.2-41.2h9.53l-9.11,41.2-9.12,41.2h-9.61Z"/>
    <path class="st0" d="M1424.4,525.79c-3.98,0-6.11-.14-6.38-.41.39-3.75.58-8.11.58-13.07v-13.07c-2.21,2.04-4.72,4.05-7.54,6.04-.44-1.6-1.24-3.64-2.4-6.12-1.11-2.48-2.07-4.3-2.9-5.46,3.87-2.21,7.54-5.17,11.02-8.89,3.48-3.72,6.41-7.76,8.78-12.12h-8.45c-2.54,0-5.33.14-8.37.41-.17-.22-.25-2.15-.25-5.79s.08-5.51.25-5.63c1.16.17,2.79.25,4.89.25h4.97v-7.61c0-2.37-.11-4.99-.33-7.86,2.71-.11,5.52-.08,8.45.08,3.59.22,5.39.58,5.39,1.08-1.33,2.32-1.99,4.69-1.99,7.12v7.2h1.41l1.99-.41,6.46,4.3c-1.82,5.57-4.45,11.12-7.87,16.63,3.98,3.59,7.46,6.87,10.44,9.85v-41.62h37.12v47.49h-8.04v13.65c0,1.21.04,1.96.12,2.23.08.28.32.41.7.41h1.57c.55,0,.91-.5,1.08-1.49.22-1.05.38-3.5.5-7.36,1.82,1.65,4.92,3.06,9.28,4.22-.44,5.68-1.41,9.6-2.9,11.75-1.38,1.99-3.62,2.98-6.71,2.98h-4.72c-3.87,0-6.46-.94-7.79-2.81-1.21-1.71-1.82-4.96-1.82-9.76v-13.82h-2.65c-.72,6.67-2.21,11.94-4.47,15.8-2.87,4.85-7.49,8.63-13.84,11.33-.55-1.38-1.49-3.01-2.82-4.88-1.33-1.88-2.57-3.36-3.73-4.47,4.86-1.76,8.34-4.25,10.44-7.45,1.6-2.43,2.68-5.87,3.23-10.34h-4.56v-5.3l-7.04,9.68c-1.11-1.82-2.9-4.38-5.39-7.69v15.31c0,6.07.22,11.14.66,15.22-.33.28-2.46.41-6.38.41ZM1453.23,463.73h15.08v-3.64h-15.08v3.64ZM1453.23,476.23h15.08v-3.72h-15.08v3.72ZM1453.23,488.72h15.08v-3.72h-15.08v3.72Z"/>
    <path class="st0" d="M1489.94,470.1c-.17-.17-.25-1.83-.25-5.01s.08-4.84.25-5.01c2.54.22,5.17.33,7.87.33h15.74c1.82,0,4.45-.11,7.87-.33.17.17.25,1.83.25,5.01s-.08,4.84-.25,5.01c-2.54-.22-5.17-.33-7.87-.33h-15.74c-1.82,0-4.45.11-7.87.33ZM1498.48,524.46c-3.31,0-5.05-.14-5.22-.41.22-2.32.33-4.69.33-7.12v-21.59h25.27v25.73h-15.5v1.49c0,.17.03.47.08.91v.58c-.06.28-1.71.41-4.97.41ZM1493.84,481.44c-.17-.11-.25-1.68-.25-4.72s.08-4.6.25-4.72c1.49.17,3.56.25,6.21.25h12.43c2.1,0,4.17-.08,6.21-.25.17.11.25,1.68.25,4.72s-.08,4.61-.25,4.72c-1.49-.17-3.56-.25-6.21-.25h-12.51c-2.1,0-4.14.08-6.13.25ZM1493.84,492.86c-.17-.11-.25-1.68-.25-4.72s.08-4.6.25-4.72c1.49.17,3.56.25,6.21.25h12.43c2.1,0,4.17-.08,6.21-.25.17.11.25,1.68.25,4.72s-.08,4.61-.25,4.72c-1.49-.17-3.56-.25-6.21-.25h-12.51c-2.1,0-4.14.08-6.13.25ZM1494,458.27c-.17-.11-.25-1.68-.25-4.72s.08-4.6.25-4.72c1.49.17,3.54.25,6.13.25h12.26c2.1,0,4.14-.08,6.13-.25.17.11.25,1.68.25,4.72s-.08,4.61-.25,4.72c-1.49-.17-3.54-.25-6.13-.25h-12.26c-2.1,0-4.14.08-6.13.25ZM1503.37,511.72h5.55v-7.03h-5.55v7.03ZM1533.45,524.21c-3.7,0-5.63-.14-5.8-.41.22-2.43.33-4.94.33-7.53v-22.59h-3.65c-.88,0-2.1.06-3.65.17-.16-.11-.25-2.03-.25-5.75s.08-5.61.25-5.67c1.21.11,2.43.17,3.65.17h3.65v-9.02c0-3.36-.14-6.48-.41-9.35,2.65-.11,5.41-.08,8.29.08,3.54.22,5.3.58,5.3,1.08-.78,1.43-1.3,2.59-1.57,3.47-.5,1.49-.75,3.2-.75,5.13v8.6h3.4c.83,0,1.96-.05,3.4-.17.17.06.25,1.94.25,5.67s-.08,5.64-.25,5.75c-1.11-.11-2.24-.17-3.4-.17h-3.4v22.59c0,2.59.11,5.1.33,7.53-.17.28-2.07.41-5.72.41ZM1555.57,524.63c-3.87-1.66-6.49-8.85-7.87-21.59-.88-8.33-1.35-21.98-1.41-40.95h-18.31c-2.04,0-4.06.08-6.05.25-.17-.11-.25-2.1-.25-5.96s.08-5.9.25-6.12c2.49.28,5.5.41,9.03.41h27.43c-.5,13.4-.55,26.53-.17,39.38.44,14.4,1.32,21.82,2.65,22.26.22.06.44-1.02.66-3.23.17-2.1.3-4.44.41-7.03,2.38,4.69,4.45,8.03,6.21,10.01-.72,5.9-2.27,9.87-4.64,11.91-2.1,1.82-4.75,2.04-7.96.66Z"/>
    <path class="st0" d="M1574.05,520.74c-.17-.39-.25-2.68-.25-6.87s.08-6.45.25-6.78c3.98.44,9,.66,15.08.66h15.08v-40.29h-12.76c-3.59,0-7.85.19-12.76.58-.17-.28-.25-2.57-.25-6.87s.08-6.62.25-6.95c4.31.44,9.75.66,16.32.66h32.81c5.14,0,10.58-.22,16.32-.66.17.33.25,2.65.25,6.95s-.08,6.59-.25,6.87c-3.76-.39-8.15-.58-13.18-.58h-13.26v40.29h15.66c4.86,0,10.08-.22,15.66-.66.17.33.25,2.59.25,6.78s-.08,6.48-.25,6.87c-5.14-.55-11.38-.83-18.73-.83h-37.54c-5.58,0-11.82.28-18.73.83Z"/>
    <path class="st0" d="M1673.07,525.7c-3.87,0-5.88-.14-6.05-.41.22-2.1.33-4.22.33-6.37v-19.2c-2.54,5.79-4.95,10.15-7.21,13.07-.88-3.03-2.65-6.89-5.3-11.58,4.03-4.8,7.68-11.5,10.94-20.1h-4.64c-1.6,0-3.15.08-4.64.25-.17-.11-.25-2.05-.25-5.83s.08-5.72.25-5.83c1.33.17,3.12.25,5.39.25h5.47v-7.78c-3.15.5-6.08.91-8.78,1.24-.5-2.59-1.57-5.65-3.23-9.18,10.66-1.76,19.2-4.05,25.61-6.87,1.93,2.32,3.62,4.69,5.05,7.12,1.44,2.43,1.93,3.72,1.49,3.89-.33.11-.72.08-1.16-.08-.72-.33-1.52-.33-2.4,0-1.11.33-2.82.83-5.14,1.49v10.18h3.89c.94,0,2.24-.05,3.89-.17.17.06.25,1.96.25,5.71s-.08,5.68-.25,5.79c-1.22-.11-2.52-.17-3.89-.17h-3.89v.99c1.05.88,2.8,2.62,5.26,5.21,2.46,2.59,4.04,4.36,4.76,5.29l-6.63,9.43c-.88-1.93-2.02-4.19-3.4-6.79v22.59c0,2.54.11,5.02.33,7.45-.16.28-2.18.41-6.05.41ZM1686,524.21c-.17-.22-.25-2.11-.25-5.67s.08-5.45.25-5.67c2.38.28,5.28.41,8.7.41h8.78v-5.71h-6.88c-1.55,0-3.81.11-6.79.33-.16-.17-.25-1.94-.25-5.34s.08-5.17.25-5.34c2.21.22,4.47.33,6.79.33h6.88v-5.05c-5.03.39-9.47.61-13.34.66-.33-2.54-1.21-5.54-2.65-9.02,15.36-.77,27.51-2.23,36.46-4.39l6.79,8.94c-4.14.99-9.31,1.88-15.5,2.65v6.21h6.71c1.49,0,3.73-.11,6.71-.33.17.17.25,1.94.25,5.34s-.08,5.17-.25,5.34c-2.21-.22-4.45-.33-6.71-.33h-6.71v5.71h8.29c1.82,0,4.56-.11,8.2-.33.17.17.25,2.01.25,5.54s-.08,5.35-.25,5.46c-1.38-.17-3.29-.25-5.72-.25h-28.67c-3.81,0-7.6.17-11.35.5ZM1690.23,479.78v-29.79h38.53v29.79h-38.53ZM1701.08,469.77h16.16v-9.76h-16.16v9.76Z"/>
  </g>
</svg>